<?xml version="1.0" encoding="utf-8"?>
<!-- Generator: Adobe Illustrator 25.4.1, SVG Export Plug-In . SVG Version: 6.00 Build 0)  -->
<svg version="1.1" id="Capa_1" xmlns="http://www.w3.org/2000/svg" xmlns:xlink="http://www.w3.org/1999/xlink" x="0px" y="0px"
	 viewBox="0 0 1000 1000" style="enable-background:new 0 0 1000 1000;" xml:space="preserve">
<style type="text/css">
	.st0{fill:#E9530D;}
	.st1{fill:#31322B;}
	.st2{fill:#FFFFFF;}
</style>
<g transform="translate(0.000000,1000.000000) scale(0.100000,-0.100000)">
	<path class="st0" d="M3974.4,6724c-517-299-944-546-950-548c-5-2-8-6-5-8c3-3,424-245,935-538c512-292,939-538,951-545
		c18-12,43,0,257,123c130,76,237,139,236,142c0,3-157,95-349,204c-193,109-350,202-350,205c1,5,196,120,220,129c4,1,167-89,362-201
		l355-204l592,341c325,187,591,343,591,346c-1,6-463,270-473,270c-5,0-156-85-337-190c-181-104-340-195-353-201c-22-10-38-4-136,52
		c-61,35-111,66-111,69c1,3,158,95,350,205s349,202,349,205c0,5-1174,683-1188,687C4917.4,7267,4491.4,7023,3974.4,6724z
		 M5039.4,6648c60-35,109-65,110-68c0-6-891-521-924-534c-18-7-43,4-135,57l-112,65l68,40c227,135,869,502,876,502
		C4926.4,6710,4979.4,6682,5039.4,6648z"/>
	<path class="st1" d="M2931.4,4930l3-1091l940-548c517-300,946-550,953-554c10-7,12,75,10,408l-3,416l-225,131
		c-124,72-231,133-237,135c-10,4-13-25-13-126c0-72-3-131-6-131c-4,0-218,122-475,272l-469,272v544c0,299,4,542,8,540
		c5-1,218-124,475-273l466-270l3-139l3-139l230-133c127-74,233-134,238-134c4,0,7,184,7,409v410l-92,54
		c-365,214-1786,1031-1801,1035C2930.4,6022,2929.4,5967,2931.4,4930z"/>
	<path class="st2" d="M6844.4,5995c-22-13-443-256-935-540s-898-520-903-524c-4-4-6-500-5-1103l3-1095l235,136l235,137l3,825l2,824
		l110,63c60,34,112,62,115,62s5-367,5-815s3-815,8-815c4,0,112,62,240,138l234,137l-1,817l-1,818l52,33c29,19,83,51,121,71l67,38
		v-820v-820l238,138l237,138l3,1091c2,870,0,1091-10,1091C6890.4,6019,6866.4,6008,6844.4,5995z"/>
</g>
</svg>
